<?xml version="1.0" standalone="no"?>
<!DOCTYPE svg PUBLIC "-//W3C//DTD SVG 20010904//EN"
 "http://www.w3.org/TR/2001/REC-SVG-20010904/DTD/svg10.dtd">
<svg version="1.0" xmlns="http://www.w3.org/2000/svg"
 width="512.000000pt" height="512.000000pt" viewBox="0 0 512.000000 512.000000"
 preserveAspectRatio="xMidYMid meet">

<g transform="translate(0.000000,512.000000) scale(0.100000,-0.100000)"
fill="#000000" stroke="none">
<path d="M2355 5109 c-1086 -88 -2003 -860 -2271 -1913 -220 -864 19 -1770
636 -2410 864 -895 2233 -1040 3269 -345 1161 778 1477 2365 703 3530 -518
778 -1410 1213 -2337 1138z m-690 -2549 l0 -1045 -225 0 -225 0 -3 817 -2 817
-148 3 -147 3 -3 215 c-1 118 0 220 3 227 3 11 81 13 377 11 l373 -3 0 -1045z
m1197 1021 c86 -34 173 -102 218 -172 79 -122 75 -80 75 -849 0 -769 4 -727
-75 -849 -45 -70 -131 -138 -218 -173 -55 -22 -67 -23 -372 -23 -361 0 -369 1
-487 84 -73 52 -118 107 -161 198 l-27 58 0 705 0 705 27 59 c43 91 92 150
168 202 115 78 152 84 500 81 279 -3 298 -4 352 -26z m1348 -1021 l0 -150
-300 0 -300 0 0 -75 0 -75 203 0 c111 0 219 -5 240 -11 44 -12 110 -68 135
-113 14 -26 17 -63 17 -246 0 -211 0 -216 -25 -260 -29 -51 -90 -97 -146 -110
-21 -5 -193 -10 -381 -10 l-343 0 0 150 0 150 295 0 295 0 0 74 0 75 -217 3
c-239 3 -246 5 -312 70 -57 56 -61 75 -61 305 0 190 2 210 21 250 12 24 36 55
55 69 67 51 83 53 467 54 l357 0 0 -150z"/>
<path d="M2260 2560 l0 -590 220 0 220 0 0 590 0 590 -220 0 -220 0 0 -590z"/>
</g>
</svg>
